<?xml version="1.0" standalone="no"?>
<!DOCTYPE svg PUBLIC "-//W3C//DTD SVG 1.1//EN" "http://www.w3.org/Graphics/SVG/1.1/DTD/svg11.dtd">
<svg width="246" height="246" version="1.1" xmlns="http://www.w3.org/2000/svg">
	<desc>https://www.figma.com/file/tFrv8llAMnhDOTes8PPlfz/WordPress-Gutenberg-UI-Kit/duplicate</desc>
	<g id="elements" fill="black" stroke="none">
		<rect x="0" y="0" width="6" height="6" />
		<rect x="6" y="0" width="6" height="6" />
		<rect x="12" y="0" width="6" height="6" />
		<rect x="18" y="0" width="6" height="6" />
		<rect x="24" y="0" width="6" height="6" />
		<rect x="30" y="0" width="6" height="6" />
		<rect x="36" y="0" width="6" height="6" />
		<rect x="48" y="0" width="6" height="6" />
		<rect x="54" y="0" width="6" height="6" />
		<rect x="60" y="0" width="6" height="6" />
		<rect x="66" y="0" width="6" height="6" />
		<rect x="96" y="0" width="6" height="6" />
		<rect x="108" y="0" width="6" height="6" />
		<rect x="114" y="0" width="6" height="6" />
		<rect x="120" y="0" width="6" height="6" />
		<rect x="138" y="0" width="6" height="6" />
		<rect x="144" y="0" width="6" height="6" />
		<rect x="156" y="0" width="6" height="6" />
		<rect x="168" y="0" width="6" height="6" />
		<rect x="174" y="0" width="6" height="6" />
		<rect x="186" y="0" width="6" height="6" />
		<rect x="192" y="0" width="6" height="6" />
		<rect x="204" y="0" width="6" height="6" />
		<rect x="210" y="0" width="6" height="6" />
		<rect x="216" y="0" width="6" height="6" />
		<rect x="222" y="0" width="6" height="6" />
		<rect x="228" y="0" width="6" height="6" />
		<rect x="234" y="0" width="6" height="6" />
		<rect x="240" y="0" width="6" height="6" />
		<rect x="0" y="6" width="6" height="6" />
		<rect x="36" y="6" width="6" height="6" />
		<rect x="48" y="6" width="6" height="6" />
		<rect x="66" y="6" width="6" height="6" />
		<rect x="72" y="6" width="6" height="6" />
		<rect x="78" y="6" width="6" height="6" />
		<rect x="90" y="6" width="6" height="6" />
		<rect x="96" y="6" width="6" height="6" />
		<rect x="102" y="6" width="6" height="6" />
		<rect x="126" y="6" width="6" height="6" />
		<rect x="132" y="6" width="6" height="6" />
		<rect x="138" y="6" width="6" height="6" />
		<rect x="144" y="6" width="6" height="6" />
		<rect x="156" y="6" width="6" height="6" />
		<rect x="168" y="6" width="6" height="6" />
		<rect x="180" y="6" width="6" height="6" />
		<rect x="204" y="6" width="6" height="6" />
		<rect x="240" y="6" width="6" height="6" />
		<rect x="0" y="12" width="6" height="6" />
		<rect x="12" y="12" width="6" height="6" />
		<rect x="18" y="12" width="6" height="6" />
		<rect x="24" y="12" width="6" height="6" />
		<rect x="36" y="12" width="6" height="6" />
		<rect x="72" y="12" width="6" height="6" />
		<rect x="78" y="12" width="6" height="6" />
		<rect x="108" y="12" width="6" height="6" />
		<rect x="120" y="12" width="6" height="6" />
		<rect x="126" y="12" width="6" height="6" />
		<rect x="132" y="12" width="6" height="6" />
		<rect x="150" y="12" width="6" height="6" />
		<rect x="156" y="12" width="6" height="6" />
		<rect x="174" y="12" width="6" height="6" />
		<rect x="186" y="12" width="6" height="6" />
		<rect x="192" y="12" width="6" height="6" />
		<rect x="204" y="12" width="6" height="6" />
		<rect x="216" y="12" width="6" height="6" />
		<rect x="222" y="12" width="6" height="6" />
		<rect x="228" y="12" width="6" height="6" />
		<rect x="240" y="12" width="6" height="6" />
		<rect x="0" y="18" width="6" height="6" />
		<rect x="12" y="18" width="6" height="6" />
		<rect x="18" y="18" width="6" height="6" />
		<rect x="24" y="18" width="6" height="6" />
		<rect x="36" y="18" width="6" height="6" />
		<rect x="48" y="18" width="6" height="6" />
		<rect x="54" y="18" width="6" height="6" />
		<rect x="60" y="18" width="6" height="6" />
		<rect x="66" y="18" width="6" height="6" />
		<rect x="84" y="18" width="6" height="6" />
		<rect x="96" y="18" width="6" height="6" />
		<rect x="108" y="18" width="6" height="6" />
		<rect x="114" y="18" width="6" height="6" />
		<rect x="120" y="18" width="6" height="6" />
		<rect x="126" y="18" width="6" height="6" />
		<rect x="132" y="18" width="6" height="6" />
		<rect x="138" y="18" width="6" height="6" />
		<rect x="162" y="18" width="6" height="6" />
		<rect x="168" y="18" width="6" height="6" />
		<rect x="204" y="18" width="6" height="6" />
		<rect x="216" y="18" width="6" height="6" />
		<rect x="222" y="18" width="6" height="6" />
		<rect x="228" y="18" width="6" height="6" />
		<rect x="240" y="18" width="6" height="6" />
		<rect x="0" y="24" width="6" height="6" />
		<rect x="12" y="24" width="6" height="6" />
		<rect x="18" y="24" width="6" height="6" />
		<rect x="24" y="24" width="6" height="6" />
		<rect x="36" y="24" width="6" height="6" />
		<rect x="54" y="24" width="6" height="6" />
		<rect x="60" y="24" width="6" height="6" />
		<rect x="72" y="24" width="6" height="6" />
		<rect x="78" y="24" width="6" height="6" />
		<rect x="90" y="24" width="6" height="6" />
		<rect x="108" y="24" width="6" height="6" />
		<rect x="138" y="24" width="6" height="6" />
		<rect x="144" y="24" width="6" height="6" />
		<rect x="150" y="24" width="6" height="6" />
		<rect x="168" y="24" width="6" height="6" />
		<rect x="174" y="24" width="6" height="6" />
		<rect x="204" y="24" width="6" height="6" />
		<rect x="216" y="24" width="6" height="6" />
		<rect x="222" y="24" width="6" height="6" />
		<rect x="228" y="24" width="6" height="6" />
		<rect x="240" y="24" width="6" height="6" />
		<rect x="0" y="30" width="6" height="6" />
		<rect x="36" y="30" width="6" height="6" />
		<rect x="66" y="30" width="6" height="6" />
		<rect x="72" y="30" width="6" height="6" />
		<rect x="84" y="30" width="6" height="6" />
		<rect x="90" y="30" width="6" height="6" />
		<rect x="114" y="30" width="6" height="6" />
		<rect x="120" y="30" width="6" height="6" />
		<rect x="126" y="30" width="6" height="6" />
		<rect x="132" y="30" width="6" height="6" />
		<rect x="150" y="30" width="6" height="6" />
		<rect x="174" y="30" width="6" height="6" />
		<rect x="180" y="30" width="6" height="6" />
		<rect x="186" y="30" width="6" height="6" />
		<rect x="192" y="30" width="6" height="6" />
		<rect x="204" y="30" width="6" height="6" />
		<rect x="240" y="30" width="6" height="6" />
		<rect x="0" y="36" width="6" height="6" />
		<rect x="6" y="36" width="6" height="6" />
		<rect x="12" y="36" width="6" height="6" />
		<rect x="18" y="36" width="6" height="6" />
		<rect x="24" y="36" width="6" height="6" />
		<rect x="30" y="36" width="6" height="6" />
		<rect x="36" y="36" width="6" height="6" />
		<rect x="48" y="36" width="6" height="6" />
		<rect x="60" y="36" width="6" height="6" />
		<rect x="72" y="36" width="6" height="6" />
		<rect x="84" y="36" width="6" height="6" />
		<rect x="96" y="36" width="6" height="6" />
		<rect x="108" y="36" width="6" height="6" />
		<rect x="120" y="36" width="6" height="6" />
		<rect x="132" y="36" width="6" height="6" />
		<rect x="144" y="36" width="6" height="6" />
		<rect x="156" y="36" width="6" height="6" />
		<rect x="168" y="36" width="6" height="6" />
		<rect x="180" y="36" width="6" height="6" />
		<rect x="192" y="36" width="6" height="6" />
		<rect x="204" y="36" width="6" height="6" />
		<rect x="210" y="36" width="6" height="6" />
		<rect x="216" y="36" width="6" height="6" />
		<rect x="222" y="36" width="6" height="6" />
		<rect x="228" y="36" width="6" height="6" />
		<rect x="234" y="36" width="6" height="6" />
		<rect x="240" y="36" width="6" height="6" />
		<rect x="48" y="42" width="6" height="6" />
		<rect x="60" y="42" width="6" height="6" />
		<rect x="66" y="42" width="6" height="6" />
		<rect x="72" y="42" width="6" height="6" />
		<rect x="78" y="42" width="6" height="6" />
		<rect x="90" y="42" width="6" height="6" />
		<rect x="102" y="42" width="6" height="6" />
		<rect x="108" y="42" width="6" height="6" />
		<rect x="114" y="42" width="6" height="6" />
		<rect x="132" y="42" width="6" height="6" />
		<rect x="138" y="42" width="6" height="6" />
		<rect x="162" y="42" width="6" height="6" />
		<rect x="168" y="42" width="6" height="6" />
		<rect x="174" y="42" width="6" height="6" />
		<rect x="180" y="42" width="6" height="6" />
		<rect x="192" y="42" width="6" height="6" />
		<rect x="0" y="48" width="6" height="6" />
		<rect x="12" y="48" width="6" height="6" />
		<rect x="18" y="48" width="6" height="6" />
		<rect x="30" y="48" width="6" height="6" />
		<rect x="36" y="48" width="6" height="6" />
		<rect x="42" y="48" width="6" height="6" />
		<rect x="90" y="48" width="6" height="6" />
		<rect x="96" y="48" width="6" height="6" />
		<rect x="102" y="48" width="6" height="6" />
		<rect x="108" y="48" width="6" height="6" />
		<rect x="126" y="48" width="6" height="6" />
		<rect x="156" y="48" width="6" height="6" />
		<rect x="162" y="48" width="6" height="6" />
		<rect x="168" y="48" width="6" height="6" />
		<rect x="174" y="48" width="6" height="6" />
		<rect x="180" y="48" width="6" height="6" />
		<rect x="186" y="48" width="6" height="6" />
		<rect x="192" y="48" width="6" height="6" />
		<rect x="204" y="48" width="6" height="6" />
		<rect x="222" y="48" width="6" height="6" />
		<rect x="234" y="48" width="6" height="6" />
		<rect x="240" y="48" width="6" height="6" />
		<rect x="0" y="54" width="6" height="6" />
		<rect x="6" y="54" width="6" height="6" />
		<rect x="24" y="54" width="6" height="6" />
		<rect x="48" y="54" width="6" height="6" />
		<rect x="60" y="54" width="6" height="6" />
		<rect x="66" y="54" width="6" height="6" />
		<rect x="72" y="54" width="6" height="6" />
		<rect x="78" y="54" width="6" height="6" />
		<rect x="90" y="54" width="6" height="6" />
		<rect x="96" y="54" width="6" height="6" />
		<rect x="108" y="54" width="6" height="6" />
		<rect x="114" y="54" width="6" height="6" />
		<rect x="120" y="54" width="6" height="6" />
		<rect x="126" y="54" width="6" height="6" />
		<rect x="138" y="54" width="6" height="6" />
		<rect x="168" y="54" width="6" height="6" />
		<rect x="174" y="54" width="6" height="6" />
		<rect x="186" y="54" width="6" height="6" />
		<rect x="192" y="54" width="6" height="6" />
		<rect x="204" y="54" width="6" height="6" />
		<rect x="210" y="54" width="6" height="6" />
		<rect x="216" y="54" width="6" height="6" />
		<rect x="228" y="54" width="6" height="6" />
		<rect x="234" y="54" width="6" height="6" />
		<rect x="240" y="54" width="6" height="6" />
		<rect x="12" y="60" width="6" height="6" />
		<rect x="18" y="60" width="6" height="6" />
		<rect x="30" y="60" width="6" height="6" />
		<rect x="36" y="60" width="6" height="6" />
		<rect x="54" y="60" width="6" height="6" />
		<rect x="60" y="60" width="6" height="6" />
		<rect x="72" y="60" width="6" height="6" />
		<rect x="78" y="60" width="6" height="6" />
		<rect x="90" y="60" width="6" height="6" />
		<rect x="96" y="60" width="6" height="6" />
		<rect x="108" y="60" width="6" height="6" />
		<rect x="120" y="60" width="6" height="6" />
		<rect x="138" y="60" width="6" height="6" />
		<rect x="174" y="60" width="6" height="6" />
		<rect x="180" y="60" width="6" height="6" />
		<rect x="198" y="60" width="6" height="6" />
		<rect x="216" y="60" width="6" height="6" />
		<rect x="228" y="60" width="6" height="6" />
		<rect x="234" y="60" width="6" height="6" />
		<rect x="6" y="66" width="6" height="6" />
		<rect x="12" y="66" width="6" height="6" />
		<rect x="24" y="66" width="6" height="6" />
		<rect x="30" y="66" width="6" height="6" />
		<rect x="48" y="66" width="6" height="6" />
		<rect x="72" y="66" width="6" height="6" />
		<rect x="78" y="66" width="6" height="6" />
		<rect x="84" y="66" width="6" height="6" />
		<rect x="90" y="66" width="6" height="6" />
		<rect x="96" y="66" width="6" height="6" />
		<rect x="108" y="66" width="6" height="6" />
		<rect x="120" y="66" width="6" height="6" />
		<rect x="132" y="66" width="6" height="6" />
		<rect x="138" y="66" width="6" height="6" />
		<rect x="144" y="66" width="6" height="6" />
		<rect x="150" y="66" width="6" height="6" />
		<rect x="162" y="66" width="6" height="6" />
		<rect x="180" y="66" width="6" height="6" />
		<rect x="192" y="66" width="6" height="6" />
		<rect x="204" y="66" width="6" height="6" />
		<rect x="240" y="66" width="6" height="6" />
		<rect x="12" y="72" width="6" height="6" />
		<rect x="36" y="72" width="6" height="6" />
		<rect x="48" y="72" width="6" height="6" />
		<rect x="66" y="72" width="6" height="6" />
		<rect x="78" y="72" width="6" height="6" />
		<rect x="84" y="72" width="6" height="6" />
		<rect x="90" y="72" width="6" height="6" />
		<rect x="96" y="72" width="6" height="6" />
		<rect x="102" y="72" width="6" height="6" />
		<rect x="132" y="72" width="6" height="6" />
		<rect x="138" y="72" width="6" height="6" />
		<rect x="150" y="72" width="6" height="6" />
		<rect x="156" y="72" width="6" height="6" />
		<rect x="162" y="72" width="6" height="6" />
		<rect x="174" y="72" width="6" height="6" />
		<rect x="186" y="72" width="6" height="6" />
		<rect x="192" y="72" width="6" height="6" />
		<rect x="210" y="72" width="6" height="6" />
		<rect x="222" y="72" width="6" height="6" />
		<rect x="228" y="72" width="6" height="6" />
		<rect x="240" y="72" width="6" height="6" />
		<rect x="0" y="78" width="6" height="6" />
		<rect x="6" y="78" width="6" height="6" />
		<rect x="12" y="78" width="6" height="6" />
		<rect x="30" y="78" width="6" height="6" />
		<rect x="42" y="78" width="6" height="6" />
		<rect x="66" y="78" width="6" height="6" />
		<rect x="72" y="78" width="6" height="6" />
		<rect x="78" y="78" width="6" height="6" />
		<rect x="102" y="78" width="6" height="6" />
		<rect x="126" y="78" width="6" height="6" />
		<rect x="138" y="78" width="6" height="6" />
		<rect x="156" y="78" width="6" height="6" />
		<rect x="168" y="78" width="6" height="6" />
		<rect x="174" y="78" width="6" height="6" />
		<rect x="192" y="78" width="6" height="6" />
		<rect x="204" y="78" width="6" height="6" />
		<rect x="210" y="78" width="6" height="6" />
		<rect x="222" y="78" width="6" height="6" />
		<rect x="228" y="78" width="6" height="6" />
		<rect x="234" y="78" width="6" height="6" />
		<rect x="0" y="84" width="6" height="6" />
		<rect x="12" y="84" width="6" height="6" />
		<rect x="18" y="84" width="6" height="6" />
		<rect x="30" y="84" width="6" height="6" />
		<rect x="36" y="84" width="6" height="6" />
		<rect x="48" y="84" width="6" height="6" />
		<rect x="54" y="84" width="6" height="6" />
		<rect x="66" y="84" width="6" height="6" />
		<rect x="72" y="84" width="6" height="6" />
		<rect x="78" y="84" width="6" height="6" />
		<rect x="108" y="84" width="6" height="6" />
		<rect x="144" y="84" width="6" height="6" />
		<rect x="162" y="84" width="6" height="6" />
		<rect x="168" y="84" width="6" height="6" />
		<rect x="180" y="84" width="6" height="6" />
		<rect x="186" y="84" width="6" height="6" />
		<rect x="192" y="84" width="6" height="6" />
		<rect x="204" y="84" width="6" height="6" />
		<rect x="216" y="84" width="6" height="6" />
		<rect x="222" y="84" width="6" height="6" />
		<rect x="234" y="84" width="6" height="6" />
		<rect x="240" y="84" width="6" height="6" />
		<rect x="0" y="90" width="6" height="6" />
		<rect x="18" y="90" width="6" height="6" />
		<rect x="24" y="90" width="6" height="6" />
		<rect x="30" y="90" width="6" height="6" />
		<rect x="42" y="90" width="6" height="6" />
		<rect x="48" y="90" width="6" height="6" />
		<rect x="54" y="90" width="6" height="6" />
		<rect x="66" y="90" width="6" height="6" />
		<rect x="72" y="90" width="6" height="6" />
		<rect x="78" y="90" width="6" height="6" />
		<rect x="84" y="90" width="6" height="6" />
		<rect x="90" y="90" width="6" height="6" />
		<rect x="96" y="90" width="6" height="6" />
		<rect x="108" y="90" width="6" height="6" />
		<rect x="114" y="90" width="6" height="6" />
		<rect x="120" y="90" width="6" height="6" />
		<rect x="126" y="90" width="6" height="6" />
		<rect x="132" y="90" width="6" height="6" />
		<rect x="144" y="90" width="6" height="6" />
		<rect x="168" y="90" width="6" height="6" />
		<rect x="180" y="90" width="6" height="6" />
		<rect x="204" y="90" width="6" height="6" />
		<rect x="210" y="90" width="6" height="6" />
		<rect x="216" y="90" width="6" height="6" />
		<rect x="222" y="90" width="6" height="6" />
		<rect x="234" y="90" width="6" height="6" />
		<rect x="0" y="96" width="6" height="6" />
		<rect x="12" y="96" width="6" height="6" />
		<rect x="18" y="96" width="6" height="6" />
		<rect x="30" y="96" width="6" height="6" />
		<rect x="36" y="96" width="6" height="6" />
		<rect x="42" y="96" width="6" height="6" />
		<rect x="54" y="96" width="6" height="6" />
		<rect x="60" y="96" width="6" height="6" />
		<rect x="72" y="96" width="6" height="6" />
		<rect x="78" y="96" width="6" height="6" />
		<rect x="90" y="96" width="6" height="6" />
		<rect x="108" y="96" width="6" height="6" />
		<rect x="114" y="96" width="6" height="6" />
		<rect x="120" y="96" width="6" height="6" />
		<rect x="132" y="96" width="6" height="6" />
		<rect x="138" y="96" width="6" height="6" />
		<rect x="150" y="96" width="6" height="6" />
		<rect x="162" y="96" width="6" height="6" />
		<rect x="180" y="96" width="6" height="6" />
		<rect x="216" y="96" width="6" height="6" />
		<rect x="228" y="96" width="6" height="6" />
		<rect x="234" y="96" width="6" height="6" />
		<rect x="0" y="102" width="6" height="6" />
		<rect x="6" y="102" width="6" height="6" />
		<rect x="18" y="102" width="6" height="6" />
		<rect x="30" y="102" width="6" height="6" />
		<rect x="72" y="102" width="6" height="6" />
		<rect x="102" y="102" width="6" height="6" />
		<rect x="108" y="102" width="6" height="6" />
		<rect x="132" y="102" width="6" height="6" />
		<rect x="144" y="102" width="6" height="6" />
		<rect x="162" y="102" width="6" height="6" />
		<rect x="192" y="102" width="6" height="6" />
		<rect x="198" y="102" width="6" height="6" />
		<rect x="210" y="102" width="6" height="6" />
		<rect x="222" y="102" width="6" height="6" />
		<rect x="234" y="102" width="6" height="6" />
		<rect x="6" y="108" width="6" height="6" />
		<rect x="12" y="108" width="6" height="6" />
		<rect x="18" y="108" width="6" height="6" />
		<rect x="36" y="108" width="6" height="6" />
		<rect x="48" y="108" width="6" height="6" />
		<rect x="72" y="108" width="6" height="6" />
		<rect x="78" y="108" width="6" height="6" />
		<rect x="102" y="108" width="6" height="6" />
		<rect x="126" y="108" width="6" height="6" />
		<rect x="150" y="108" width="6" height="6" />
		<rect x="156" y="108" width="6" height="6" />
		<rect x="162" y="108" width="6" height="6" />
		<rect x="180" y="108" width="6" height="6" />
		<rect x="192" y="108" width="6" height="6" />
		<rect x="198" y="108" width="6" height="6" />
		<rect x="204" y="108" width="6" height="6" />
		<rect x="216" y="108" width="6" height="6" />
		<rect x="6" y="114" width="6" height="6" />
		<rect x="24" y="114" width="6" height="6" />
		<rect x="30" y="114" width="6" height="6" />
		<rect x="48" y="114" width="6" height="6" />
		<rect x="54" y="114" width="6" height="6" />
		<rect x="66" y="114" width="6" height="6" />
		<rect x="84" y="114" width="6" height="6" />
		<rect x="132" y="114" width="6" height="6" />
		<rect x="138" y="114" width="6" height="6" />
		<rect x="144" y="114" width="6" height="6" />
		<rect x="150" y="114" width="6" height="6" />
		<rect x="156" y="114" width="6" height="6" />
		<rect x="162" y="114" width="6" height="6" />
		<rect x="174" y="114" width="6" height="6" />
		<rect x="180" y="114" width="6" height="6" />
		<rect x="186" y="114" width="6" height="6" />
		<rect x="210" y="114" width="6" height="6" />
		<rect x="222" y="114" width="6" height="6" />
		<rect x="228" y="114" width="6" height="6" />
		<rect x="234" y="114" width="6" height="6" />
		<rect x="240" y="114" width="6" height="6" />
		<rect x="0" y="120" width="6" height="6" />
		<rect x="24" y="120" width="6" height="6" />
		<rect x="30" y="120" width="6" height="6" />
		<rect x="36" y="120" width="6" height="6" />
		<rect x="42" y="120" width="6" height="6" />
		<rect x="54" y="120" width="6" height="6" />
		<rect x="60" y="120" width="6" height="6" />
		<rect x="66" y="120" width="6" height="6" />
		<rect x="72" y="120" width="6" height="6" />
		<rect x="96" y="120" width="6" height="6" />
		<rect x="108" y="120" width="6" height="6" />
		<rect x="114" y="120" width="6" height="6" />
		<rect x="132" y="120" width="6" height="6" />
		<rect x="144" y="120" width="6" height="6" />
		<rect x="150" y="120" width="6" height="6" />
		<rect x="156" y="120" width="6" height="6" />
		<rect x="168" y="120" width="6" height="6" />
		<rect x="186" y="120" width="6" height="6" />
		<rect x="198" y="120" width="6" height="6" />
		<rect x="204" y="120" width="6" height="6" />
		<rect x="210" y="120" width="6" height="6" />
		<rect x="216" y="120" width="6" height="6" />
		<rect x="228" y="120" width="6" height="6" />
		<rect x="234" y="120" width="6" height="6" />
		<rect x="0" y="126" width="6" height="6" />
		<rect x="6" y="126" width="6" height="6" />
		<rect x="30" y="126" width="6" height="6" />
		<rect x="48" y="126" width="6" height="6" />
		<rect x="60" y="126" width="6" height="6" />
		<rect x="72" y="126" width="6" height="6" />
		<rect x="84" y="126" width="6" height="6" />
		<rect x="96" y="126" width="6" height="6" />
		<rect x="102" y="126" width="6" height="6" />
		<rect x="108" y="126" width="6" height="6" />
		<rect x="114" y="126" width="6" height="6" />
		<rect x="132" y="126" width="6" height="6" />
		<rect x="162" y="126" width="6" height="6" />
		<rect x="168" y="126" width="6" height="6" />
		<rect x="192" y="126" width="6" height="6" />
		<rect x="198" y="126" width="6" height="6" />
		<rect x="204" y="126" width="6" height="6" />
		<rect x="210" y="126" width="6" height="6" />
		<rect x="216" y="126" width="6" height="6" />
		<rect x="228" y="126" width="6" height="6" />
		<rect x="234" y="126" width="6" height="6" />
		<rect x="240" y="126" width="6" height="6" />
		<rect x="6" y="132" width="6" height="6" />
		<rect x="24" y="132" width="6" height="6" />
		<rect x="36" y="132" width="6" height="6" />
		<rect x="42" y="132" width="6" height="6" />
		<rect x="54" y="132" width="6" height="6" />
		<rect x="90" y="132" width="6" height="6" />
		<rect x="96" y="132" width="6" height="6" />
		<rect x="102" y="132" width="6" height="6" />
		<rect x="108" y="132" width="6" height="6" />
		<rect x="120" y="132" width="6" height="6" />
		<rect x="126" y="132" width="6" height="6" />
		<rect x="132" y="132" width="6" height="6" />
		<rect x="138" y="132" width="6" height="6" />
		<rect x="150" y="132" width="6" height="6" />
		<rect x="180" y="132" width="6" height="6" />
		<rect x="192" y="132" width="6" height="6" />
		<rect x="222" y="132" width="6" height="6" />
		<rect x="228" y="132" width="6" height="6" />
		<rect x="234" y="132" width="6" height="6" />
		<rect x="0" y="138" width="6" height="6" />
		<rect x="18" y="138" width="6" height="6" />
		<rect x="24" y="138" width="6" height="6" />
		<rect x="30" y="138" width="6" height="6" />
		<rect x="48" y="138" width="6" height="6" />
		<rect x="54" y="138" width="6" height="6" />
		<rect x="60" y="138" width="6" height="6" />
		<rect x="72" y="138" width="6" height="6" />
		<rect x="78" y="138" width="6" height="6" />
		<rect x="96" y="138" width="6" height="6" />
		<rect x="150" y="138" width="6" height="6" />
		<rect x="156" y="138" width="6" height="6" />
		<rect x="180" y="138" width="6" height="6" />
		<rect x="186" y="138" width="6" height="6" />
		<rect x="192" y="138" width="6" height="6" />
		<rect x="198" y="138" width="6" height="6" />
		<rect x="6" y="144" width="6" height="6" />
		<rect x="12" y="144" width="6" height="6" />
		<rect x="18" y="144" width="6" height="6" />
		<rect x="30" y="144" width="6" height="6" />
		<rect x="36" y="144" width="6" height="6" />
		<rect x="48" y="144" width="6" height="6" />
		<rect x="54" y="144" width="6" height="6" />
		<rect x="60" y="144" width="6" height="6" />
		<rect x="66" y="144" width="6" height="6" />
		<rect x="78" y="144" width="6" height="6" />
		<rect x="90" y="144" width="6" height="6" />
		<rect x="96" y="144" width="6" height="6" />
		<rect x="102" y="144" width="6" height="6" />
		<rect x="114" y="144" width="6" height="6" />
		<rect x="132" y="144" width="6" height="6" />
		<rect x="138" y="144" width="6" height="6" />
		<rect x="144" y="144" width="6" height="6" />
		<rect x="150" y="144" width="6" height="6" />
		<rect x="156" y="144" width="6" height="6" />
		<rect x="162" y="144" width="6" height="6" />
		<rect x="174" y="144" width="6" height="6" />
		<rect x="186" y="144" width="6" height="6" />
		<rect x="198" y="144" width="6" height="6" />
		<rect x="210" y="144" width="6" height="6" />
		<rect x="228" y="144" width="6" height="6" />
		<rect x="0" y="150" width="6" height="6" />
		<rect x="18" y="150" width="6" height="6" />
		<rect x="24" y="150" width="6" height="6" />
		<rect x="42" y="150" width="6" height="6" />
		<rect x="48" y="150" width="6" height="6" />
		<rect x="60" y="150" width="6" height="6" />
		<rect x="96" y="150" width="6" height="6" />
		<rect x="114" y="150" width="6" height="6" />
		<rect x="126" y="150" width="6" height="6" />
		<rect x="156" y="150" width="6" height="6" />
		<rect x="162" y="150" width="6" height="6" />
		<rect x="168" y="150" width="6" height="6" />
		<rect x="180" y="150" width="6" height="6" />
		<rect x="186" y="150" width="6" height="6" />
		<rect x="192" y="150" width="6" height="6" />
		<rect x="204" y="150" width="6" height="6" />
		<rect x="222" y="150" width="6" height="6" />
		<rect x="228" y="150" width="6" height="6" />
		<rect x="240" y="150" width="6" height="6" />
		<rect x="0" y="156" width="6" height="6" />
		<rect x="6" y="156" width="6" height="6" />
		<rect x="12" y="156" width="6" height="6" />
		<rect x="36" y="156" width="6" height="6" />
		<rect x="48" y="156" width="6" height="6" />
		<rect x="60" y="156" width="6" height="6" />
		<rect x="66" y="156" width="6" height="6" />
		<rect x="84" y="156" width="6" height="6" />
		<rect x="102" y="156" width="6" height="6" />
		<rect x="108" y="156" width="6" height="6" />
		<rect x="114" y="156" width="6" height="6" />
		<rect x="120" y="156" width="6" height="6" />
		<rect x="144" y="156" width="6" height="6" />
		<rect x="150" y="156" width="6" height="6" />
		<rect x="156" y="156" width="6" height="6" />
		<rect x="168" y="156" width="6" height="6" />
		<rect x="174" y="156" width="6" height="6" />
		<rect x="180" y="156" width="6" height="6" />
		<rect x="186" y="156" width="6" height="6" />
		<rect x="192" y="156" width="6" height="6" />
		<rect x="198" y="156" width="6" height="6" />
		<rect x="204" y="156" width="6" height="6" />
		<rect x="210" y="156" width="6" height="6" />
		<rect x="222" y="156" width="6" height="6" />
		<rect x="234" y="156" width="6" height="6" />
		<rect x="240" y="156" width="6" height="6" />
		<rect x="12" y="162" width="6" height="6" />
		<rect x="24" y="162" width="6" height="6" />
		<rect x="60" y="162" width="6" height="6" />
		<rect x="66" y="162" width="6" height="6" />
		<rect x="72" y="162" width="6" height="6" />
		<rect x="78" y="162" width="6" height="6" />
		<rect x="84" y="162" width="6" height="6" />
		<rect x="90" y="162" width="6" height="6" />
		<rect x="114" y="162" width="6" height="6" />
		<rect x="120" y="162" width="6" height="6" />
		<rect x="126" y="162" width="6" height="6" />
		<rect x="144" y="162" width="6" height="6" />
		<rect x="156" y="162" width="6" height="6" />
		<rect x="168" y="162" width="6" height="6" />
		<rect x="180" y="162" width="6" height="6" />
		<rect x="186" y="162" width="6" height="6" />
		<rect x="192" y="162" width="6" height="6" />
		<rect x="210" y="162" width="6" height="6" />
		<rect x="216" y="162" width="6" height="6" />
		<rect x="222" y="162" width="6" height="6" />
		<rect x="234" y="162" width="6" height="6" />
		<rect x="0" y="168" width="6" height="6" />
		<rect x="6" y="168" width="6" height="6" />
		<rect x="18" y="168" width="6" height="6" />
		<rect x="24" y="168" width="6" height="6" />
		<rect x="30" y="168" width="6" height="6" />
		<rect x="36" y="168" width="6" height="6" />
		<rect x="78" y="168" width="6" height="6" />
		<rect x="96" y="168" width="6" height="6" />
		<rect x="108" y="168" width="6" height="6" />
		<rect x="114" y="168" width="6" height="6" />
		<rect x="126" y="168" width="6" height="6" />
		<rect x="132" y="168" width="6" height="6" />
		<rect x="138" y="168" width="6" height="6" />
		<rect x="150" y="168" width="6" height="6" />
		<rect x="162" y="168" width="6" height="6" />
		<rect x="168" y="168" width="6" height="6" />
		<rect x="180" y="168" width="6" height="6" />
		<rect x="186" y="168" width="6" height="6" />
		<rect x="192" y="168" width="6" height="6" />
		<rect x="216" y="168" width="6" height="6" />
		<rect x="222" y="168" width="6" height="6" />
		<rect x="12" y="174" width="6" height="6" />
		<rect x="18" y="174" width="6" height="6" />
		<rect x="24" y="174" width="6" height="6" />
		<rect x="48" y="174" width="6" height="6" />
		<rect x="54" y="174" width="6" height="6" />
		<rect x="72" y="174" width="6" height="6" />
		<rect x="84" y="174" width="6" height="6" />
		<rect x="96" y="174" width="6" height="6" />
		<rect x="108" y="174" width="6" height="6" />
		<rect x="114" y="174" width="6" height="6" />
		<rect x="126" y="174" width="6" height="6" />
		<rect x="132" y="174" width="6" height="6" />
		<rect x="144" y="174" width="6" height="6" />
		<rect x="150" y="174" width="6" height="6" />
		<rect x="156" y="174" width="6" height="6" />
		<rect x="168" y="174" width="6" height="6" />
		<rect x="186" y="174" width="6" height="6" />
		<rect x="192" y="174" width="6" height="6" />
		<rect x="204" y="174" width="6" height="6" />
		<rect x="210" y="174" width="6" height="6" />
		<rect x="0" y="180" width="6" height="6" />
		<rect x="12" y="180" width="6" height="6" />
		<rect x="36" y="180" width="6" height="6" />
		<rect x="48" y="180" width="6" height="6" />
		<rect x="60" y="180" width="6" height="6" />
		<rect x="120" y="180" width="6" height="6" />
		<rect x="138" y="180" width="6" height="6" />
		<rect x="144" y="180" width="6" height="6" />
		<rect x="150" y="180" width="6" height="6" />
		<rect x="156" y="180" width="6" height="6" />
		<rect x="162" y="180" width="6" height="6" />
		<rect x="168" y="180" width="6" height="6" />
		<rect x="186" y="180" width="6" height="6" />
		<rect x="198" y="180" width="6" height="6" />
		<rect x="204" y="180" width="6" height="6" />
		<rect x="228" y="180" width="6" height="6" />
		<rect x="12" y="186" width="6" height="6" />
		<rect x="18" y="186" width="6" height="6" />
		<rect x="24" y="186" width="6" height="6" />
		<rect x="30" y="186" width="6" height="6" />
		<rect x="54" y="186" width="6" height="6" />
		<rect x="60" y="186" width="6" height="6" />
		<rect x="72" y="186" width="6" height="6" />
		<rect x="78" y="186" width="6" height="6" />
		<rect x="84" y="186" width="6" height="6" />
		<rect x="90" y="186" width="6" height="6" />
		<rect x="102" y="186" width="6" height="6" />
		<rect x="108" y="186" width="6" height="6" />
		<rect x="120" y="186" width="6" height="6" />
		<rect x="132" y="186" width="6" height="6" />
		<rect x="144" y="186" width="6" height="6" />
		<rect x="174" y="186" width="6" height="6" />
		<rect x="180" y="186" width="6" height="6" />
		<rect x="186" y="186" width="6" height="6" />
		<rect x="204" y="186" width="6" height="6" />
		<rect x="210" y="186" width="6" height="6" />
		<rect x="222" y="186" width="6" height="6" />
		<rect x="228" y="186" width="6" height="6" />
		<rect x="240" y="186" width="6" height="6" />
		<rect x="6" y="192" width="6" height="6" />
		<rect x="12" y="192" width="6" height="6" />
		<rect x="18" y="192" width="6" height="6" />
		<rect x="36" y="192" width="6" height="6" />
		<rect x="60" y="192" width="6" height="6" />
		<rect x="72" y="192" width="6" height="6" />
		<rect x="78" y="192" width="6" height="6" />
		<rect x="96" y="192" width="6" height="6" />
		<rect x="102" y="192" width="6" height="6" />
		<rect x="108" y="192" width="6" height="6" />
		<rect x="114" y="192" width="6" height="6" />
		<rect x="120" y="192" width="6" height="6" />
		<rect x="126" y="192" width="6" height="6" />
		<rect x="138" y="192" width="6" height="6" />
		<rect x="144" y="192" width="6" height="6" />
		<rect x="168" y="192" width="6" height="6" />
		<rect x="174" y="192" width="6" height="6" />
		<rect x="180" y="192" width="6" height="6" />
		<rect x="192" y="192" width="6" height="6" />
		<rect x="198" y="192" width="6" height="6" />
		<rect x="204" y="192" width="6" height="6" />
		<rect x="210" y="192" width="6" height="6" />
		<rect x="216" y="192" width="6" height="6" />
		<rect x="228" y="192" width="6" height="6" />
		<rect x="240" y="192" width="6" height="6" />
		<rect x="48" y="198" width="6" height="6" />
		<rect x="54" y="198" width="6" height="6" />
		<rect x="78" y="198" width="6" height="6" />
		<rect x="96" y="198" width="6" height="6" />
		<rect x="114" y="198" width="6" height="6" />
		<rect x="120" y="198" width="6" height="6" />
		<rect x="168" y="198" width="6" height="6" />
		<rect x="174" y="198" width="6" height="6" />
		<rect x="180" y="198" width="6" height="6" />
		<rect x="192" y="198" width="6" height="6" />
		<rect x="216" y="198" width="6" height="6" />
		<rect x="234" y="198" width="6" height="6" />
		<rect x="240" y="198" width="6" height="6" />
		<rect x="0" y="204" width="6" height="6" />
		<rect x="6" y="204" width="6" height="6" />
		<rect x="12" y="204" width="6" height="6" />
		<rect x="18" y="204" width="6" height="6" />
		<rect x="24" y="204" width="6" height="6" />
		<rect x="30" y="204" width="6" height="6" />
		<rect x="36" y="204" width="6" height="6" />
		<rect x="48" y="204" width="6" height="6" />
		<rect x="66" y="204" width="6" height="6" />
		<rect x="72" y="204" width="6" height="6" />
		<rect x="84" y="204" width="6" height="6" />
		<rect x="96" y="204" width="6" height="6" />
		<rect x="102" y="204" width="6" height="6" />
		<rect x="126" y="204" width="6" height="6" />
		<rect x="132" y="204" width="6" height="6" />
		<rect x="138" y="204" width="6" height="6" />
		<rect x="144" y="204" width="6" height="6" />
		<rect x="156" y="204" width="6" height="6" />
		<rect x="180" y="204" width="6" height="6" />
		<rect x="192" y="204" width="6" height="6" />
		<rect x="204" y="204" width="6" height="6" />
		<rect x="216" y="204" width="6" height="6" />
		<rect x="0" y="210" width="6" height="6" />
		<rect x="36" y="210" width="6" height="6" />
		<rect x="48" y="210" width="6" height="6" />
		<rect x="54" y="210" width="6" height="6" />
		<rect x="66" y="210" width="6" height="6" />
		<rect x="72" y="210" width="6" height="6" />
		<rect x="78" y="210" width="6" height="6" />
		<rect x="84" y="210" width="6" height="6" />
		<rect x="96" y="210" width="6" height="6" />
		<rect x="108" y="210" width="6" height="6" />
		<rect x="114" y="210" width="6" height="6" />
		<rect x="126" y="210" width="6" height="6" />
		<rect x="132" y="210" width="6" height="6" />
		<rect x="144" y="210" width="6" height="6" />
		<rect x="150" y="210" width="6" height="6" />
		<rect x="156" y="210" width="6" height="6" />
		<rect x="162" y="210" width="6" height="6" />
		<rect x="174" y="210" width="6" height="6" />
		<rect x="192" y="210" width="6" height="6" />
		<rect x="216" y="210" width="6" height="6" />
		<rect x="234" y="210" width="6" height="6" />
		<rect x="240" y="210" width="6" height="6" />
		<rect x="0" y="216" width="6" height="6" />
		<rect x="12" y="216" width="6" height="6" />
		<rect x="18" y="216" width="6" height="6" />
		<rect x="24" y="216" width="6" height="6" />
		<rect x="36" y="216" width="6" height="6" />
		<rect x="72" y="216" width="6" height="6" />
		<rect x="84" y="216" width="6" height="6" />
		<rect x="90" y="216" width="6" height="6" />
		<rect x="108" y="216" width="6" height="6" />
		<rect x="114" y="216" width="6" height="6" />
		<rect x="120" y="216" width="6" height="6" />
		<rect x="126" y="216" width="6" height="6" />
		<rect x="132" y="216" width="6" height="6" />
		<rect x="138" y="216" width="6" height="6" />
		<rect x="192" y="216" width="6" height="6" />
		<rect x="198" y="216" width="6" height="6" />
		<rect x="204" y="216" width="6" height="6" />
		<rect x="210" y="216" width="6" height="6" />
		<rect x="216" y="216" width="6" height="6" />
		<rect x="228" y="216" width="6" height="6" />
		<rect x="0" y="222" width="6" height="6" />
		<rect x="12" y="222" width="6" height="6" />
		<rect x="18" y="222" width="6" height="6" />
		<rect x="24" y="222" width="6" height="6" />
		<rect x="36" y="222" width="6" height="6" />
		<rect x="48" y="222" width="6" height="6" />
		<rect x="60" y="222" width="6" height="6" />
		<rect x="66" y="222" width="6" height="6" />
		<rect x="72" y="222" width="6" height="6" />
		<rect x="96" y="222" width="6" height="6" />
		<rect x="108" y="222" width="6" height="6" />
		<rect x="114" y="222" width="6" height="6" />
		<rect x="126" y="222" width="6" height="6" />
		<rect x="150" y="222" width="6" height="6" />
		<rect x="168" y="222" width="6" height="6" />
		<rect x="174" y="222" width="6" height="6" />
		<rect x="186" y="222" width="6" height="6" />
		<rect x="192" y="222" width="6" height="6" />
		<rect x="216" y="222" width="6" height="6" />
		<rect x="228" y="222" width="6" height="6" />
		<rect x="234" y="222" width="6" height="6" />
		<rect x="0" y="228" width="6" height="6" />
		<rect x="12" y="228" width="6" height="6" />
		<rect x="18" y="228" width="6" height="6" />
		<rect x="24" y="228" width="6" height="6" />
		<rect x="36" y="228" width="6" height="6" />
		<rect x="48" y="228" width="6" height="6" />
		<rect x="72" y="228" width="6" height="6" />
		<rect x="78" y="228" width="6" height="6" />
		<rect x="84" y="228" width="6" height="6" />
		<rect x="102" y="228" width="6" height="6" />
		<rect x="108" y="228" width="6" height="6" />
		<rect x="114" y="228" width="6" height="6" />
		<rect x="144" y="228" width="6" height="6" />
		<rect x="150" y="228" width="6" height="6" />
		<rect x="156" y="228" width="6" height="6" />
		<rect x="168" y="228" width="6" height="6" />
		<rect x="174" y="228" width="6" height="6" />
		<rect x="180" y="228" width="6" height="6" />
		<rect x="192" y="228" width="6" height="6" />
		<rect x="210" y="228" width="6" height="6" />
		<rect x="228" y="228" width="6" height="6" />
		<rect x="234" y="228" width="6" height="6" />
		<rect x="240" y="228" width="6" height="6" />
		<rect x="0" y="234" width="6" height="6" />
		<rect x="36" y="234" width="6" height="6" />
		<rect x="54" y="234" width="6" height="6" />
		<rect x="66" y="234" width="6" height="6" />
		<rect x="72" y="234" width="6" height="6" />
		<rect x="78" y="234" width="6" height="6" />
		<rect x="84" y="234" width="6" height="6" />
		<rect x="96" y="234" width="6" height="6" />
		<rect x="102" y="234" width="6" height="6" />
		<rect x="114" y="234" width="6" height="6" />
		<rect x="120" y="234" width="6" height="6" />
		<rect x="126" y="234" width="6" height="6" />
		<rect x="132" y="234" width="6" height="6" />
		<rect x="138" y="234" width="6" height="6" />
		<rect x="144" y="234" width="6" height="6" />
		<rect x="156" y="234" width="6" height="6" />
		<rect x="162" y="234" width="6" height="6" />
		<rect x="192" y="234" width="6" height="6" />
		<rect x="204" y="234" width="6" height="6" />
		<rect x="216" y="234" width="6" height="6" />
		<rect x="222" y="234" width="6" height="6" />
		<rect x="234" y="234" width="6" height="6" />
		<rect x="0" y="240" width="6" height="6" />
		<rect x="6" y="240" width="6" height="6" />
		<rect x="12" y="240" width="6" height="6" />
		<rect x="18" y="240" width="6" height="6" />
		<rect x="24" y="240" width="6" height="6" />
		<rect x="30" y="240" width="6" height="6" />
		<rect x="36" y="240" width="6" height="6" />
		<rect x="48" y="240" width="6" height="6" />
		<rect x="60" y="240" width="6" height="6" />
		<rect x="66" y="240" width="6" height="6" />
		<rect x="84" y="240" width="6" height="6" />
		<rect x="108" y="240" width="6" height="6" />
		<rect x="120" y="240" width="6" height="6" />
		<rect x="126" y="240" width="6" height="6" />
		<rect x="138" y="240" width="6" height="6" />
		<rect x="150" y="240" width="6" height="6" />
		<rect x="162" y="240" width="6" height="6" />
		<rect x="186" y="240" width="6" height="6" />
		<rect x="192" y="240" width="6" height="6" />
		<rect x="234" y="240" width="6" height="6" />
	</g>
</svg>
